<svg width="512" height="512" viewBox="0 0 512 512" fill="none" xmlns="http://www.w3.org/2000/svg">
<path d="M256 512C323.895 512 389.01 485.029 437.019 437.019C485.029 389.01 512 323.895 512 256C512 188.105 485.029 122.99 437.019 74.9807C389.01 26.9714 323.895 0 256 0C188.105 0 122.99 26.9714 74.9807 74.9807C26.9714 122.99 0 188.105 0 256C0 323.895 26.9714 389.01 74.9807 437.019C122.99 485.029 188.105 512 256 512ZM96.8 314.1C93 300.4 104.2 288 118.4 288H393.6C407.8 288 419.1 300.4 415.2 314.1C396.2 382 332.1 432 256 432C179.9 432 115.8 382 96.8 314.1ZM133.5 114.7L223.4 162.6C234.1 168.3 234.1 183.7 223.4 189.4L133.5 237.3C125.6 241.5 116 235.8 116 226.8C116 224 117 221.3 118.8 219.2L154.8 176L118.8 132.8C117 130.7 116 128 116 125.2C116 116.2 125.6 110.5 133.5 114.7ZM396 125.1C396 127.9 395 130.6 393.2 132.7L357.2 175.9L393.2 219.1C395 221.2 396 223.9 396 226.7C396 235.7 386.4 241.4 378.5 237.2L288.6 189.3C277.9 183.6 277.9 168.2 288.6 162.5L378.5 114.6C386.4 110.4 396 116.1 396 125.1Z" fill="black"/>
</svg>
