<svg width="2048" height="2048" viewBox="0 0 2048 2048" fill="none" xmlns="http://www.w3.org/2000/svg">
<path d="M640 896C622 896 605.333 892.667 590 886C574.667 879.333 561.333 870.333 550 859C538.667 847.667 529.333 834 522 818C514.667 802 511.333 785.333 512 768C512 750 515.333 733.333 522 718C528.667 702.667 537.667 689.333 549 678C560.333 666.667 574 657.333 590 650C606 642.667 622.667 639.333 640 640C658 640 674.667 643.333 690 650C705.333 656.667 718.667 665.667 730 677C741.333 688.333 750.667 702 758 718C765.333 734 768.667 750.667 768 768C768 786 764.667 802.667 758 818C751.333 833.333 742.333 846.667 731 858C719.667 869.333 706 878.667 690 886C674 893.333 657.333 896.667 640 896ZM1408 896C1390 896 1373.33 892.667 1358 886C1342.67 879.333 1329.33 870.333 1318 859C1306.67 847.667 1297.33 834 1290 818C1282.67 802 1279.33 785.333 1280 768C1280 750 1283.33 733.333 1290 718C1296.67 702.667 1305.67 689.333 1317 678C1328.33 666.667 1342 657.333 1358 650C1374 642.667 1390.67 639.333 1408 640C1426 640 1442.67 643.333 1458 650C1473.33 656.667 1486.67 665.667 1498 677C1509.33 688.333 1518.67 702 1526 718C1533.33 734 1536.67 750.667 1536 768C1536 786 1532.67 802.667 1526 818C1519.33 833.333 1510.33 846.667 1499 858C1487.67 869.333 1474 878.667 1458 886C1442 893.333 1425.33 896.667 1408 896ZM1024 0C1118 0 1208.67 12 1296 36C1383.33 60 1465 94.3333 1541 139C1617 183.667 1686 237 1748 299C1810 361 1863.33 430.333 1908 507C1952.67 583.667 1987 665.333 2011 752C2035 838.667 2047.33 929.333 2048 1024C2048 1118 2036 1208.67 2012 1296C1988 1383.33 1953.67 1465 1909 1541C1864.33 1617 1811 1686 1749 1748C1687 1810 1617.67 1863.33 1541 1908C1464.33 1952.67 1382.67 1987 1296 2011C1209.33 2035 1118.67 2047.33 1024 2048C930 2048 839.333 2036 752 2012C664.667 1988 583 1953.67 507 1909C431 1864.33 362 1811 300 1749C238 1687 184.667 1617.67 140 1541C95.3333 1464.33 61 1383 37 1297C13 1211 0.666667 1120 0 1024C0 930 12 839.333 36 752C60 664.667 94.3333 583 139 507C183.667 431 237 362 299 300C361 238 430.333 184.667 507 140C583.667 95.3333 665 61 751 37C837 13 928 0.666667 1024 0ZM1024 1920C1106 1920 1185 1909.33 1261 1888C1337 1866.67 1408.33 1836.67 1475 1798C1541.67 1759.33 1602.33 1712.33 1657 1657C1711.67 1601.67 1758.33 1541.33 1797 1476C1835.67 1410.67 1866 1339.33 1888 1262C1910 1184.67 1920.67 1105.33 1920 1024C1920 942 1909.33 863 1888 787C1866.67 711 1836.67 639.667 1798 573C1759.33 506.333 1712.33 445.667 1657 391C1601.67 336.333 1541.33 289.667 1476 251C1410.67 212.333 1339.33 182 1262 160C1184.67 138 1105.33 127.333 1024 128C942 128 863 138.667 787 160C711 181.333 639.667 211.333 573 250C506.333 288.667 445.667 335.667 391 391C336.333 446.333 289.667 506.667 251 572C212.333 637.333 182 708.667 160 786C138 863.333 127.333 942.667 128 1024C128 1106 138.667 1185 160 1261C181.333 1337 211.333 1408.33 250 1475C288.667 1541.67 335.667 1602.33 391 1657C446.333 1711.67 506.667 1758.33 572 1797C637.333 1835.67 708.667 1866 786 1888C863.333 1910 942.667 1920.67 1024 1920ZM1024 1536C1072.67 1536 1119.67 1529.33 1165 1516C1210.33 1502.67 1253 1483.67 1293 1459C1333 1434.33 1368.33 1404.33 1399 1369C1429.67 1333.67 1456.67 1294.33 1480 1251L1595 1309C1567.67 1363 1534 1412 1494 1456C1454 1500 1409.33 1537.33 1360 1568C1310.67 1598.67 1257.67 1622.33 1201 1639C1144.33 1655.67 1085.33 1664 1024 1664C962.667 1664 903.667 1655.67 847 1639C790.333 1622.33 737.333 1598.67 688 1568C638.667 1537.33 594 1500 554 1456C514 1412 480.333 1363 453 1309L568 1251C590 1294.33 616.667 1333.67 648 1369C679.333 1404.33 715 1434.33 755 1459C795 1483.67 837.333 1502.67 882 1516C926.667 1529.33 974 1536 1024 1536Z" fill="black"/>
</svg>
